<mxfile host="app.diagrams.net" modified="2023-10-29T17:36:29.539Z" agent="Mozilla/5.0 (Windows NT 10.0; Win64; x64) AppleWebKit/537.36 (KHTML, like Gecko) Chrome/116.0.0.0 Safari/537.36 OPR/102.0.0.0" etag="XOyoXE2Lpvay6zrzSGGX" version="22.0.8" type="device">
  <diagram name="Page-1" id="13e1069c-82ec-6db2-03f1-153e76fe0fe0">
    <mxGraphModel dx="1552" dy="842" grid="1" gridSize="10" guides="1" tooltips="1" connect="1" arrows="1" fold="1" page="1" pageScale="1" pageWidth="1100" pageHeight="850" background="none" math="0" shadow="0">
      <root>
        <mxCell id="0" />
        <mxCell id="1" parent="0" />
        <mxCell id="7baba1c4bc27f4b0-2" value=":Page" style="shape=umlLifeline;perimeter=lifelinePerimeter;whiteSpace=wrap;html=1;container=1;collapsible=0;recursiveResize=0;outlineConnect=0;rounded=1;shadow=0;comic=0;labelBackgroundColor=none;strokeWidth=1;fontFamily=Verdana;fontSize=12;align=center;" parent="1" vertex="1">
          <mxGeometry x="260" y="80" width="140" height="590" as="geometry" />
        </mxCell>
        <mxCell id="KCVy7kyQTgMbln99Nbsg-12" value="" style="html=1;points=[[0,0,0,0,5],[0,1,0,0,-5],[1,0,0,0,5],[1,1,0,0,-5]];perimeter=orthogonalPerimeter;outlineConnect=0;targetShapes=umlLifeline;portConstraint=eastwest;newEdgeStyle={&quot;curved&quot;:0,&quot;rounded&quot;:0};" vertex="1" parent="7baba1c4bc27f4b0-2">
          <mxGeometry x="45" y="80" width="10" height="30" as="geometry" />
        </mxCell>
        <mxCell id="KCVy7kyQTgMbln99Nbsg-32" value="Show warnign about used user email" style="text;html=1;align=center;verticalAlign=middle;resizable=0;points=[];autosize=1;strokeColor=none;fillColor=none;" vertex="1" parent="7baba1c4bc27f4b0-2">
          <mxGeometry x="-80" y="190" width="220" height="30" as="geometry" />
        </mxCell>
        <mxCell id="KCVy7kyQTgMbln99Nbsg-37" style="edgeStyle=orthogonalEdgeStyle;rounded=0;orthogonalLoop=1;jettySize=auto;html=1;curved=0;" edge="1" parent="7baba1c4bc27f4b0-2">
          <mxGeometry relative="1" as="geometry">
            <mxPoint x="-92" y="299" as="sourcePoint" />
            <mxPoint x="195" y="300" as="targetPoint" />
            <Array as="points">
              <mxPoint x="110.25" y="300" />
              <mxPoint x="110.25" y="300" />
            </Array>
          </mxGeometry>
        </mxCell>
        <mxCell id="KCVy7kyQTgMbln99Nbsg-38" value="Entetr password" style="text;html=1;align=center;verticalAlign=middle;resizable=0;points=[];autosize=1;strokeColor=none;fillColor=none;" vertex="1" parent="7baba1c4bc27f4b0-2">
          <mxGeometry x="-99.75" y="270" width="110" height="30" as="geometry" />
        </mxCell>
        <mxCell id="KCVy7kyQTgMbln99Nbsg-36" style="edgeStyle=orthogonalEdgeStyle;rounded=0;orthogonalLoop=1;jettySize=auto;html=1;curved=0;endArrow=open;endFill=0;dashed=1;" edge="1" parent="7baba1c4bc27f4b0-2">
          <mxGeometry relative="1" as="geometry">
            <mxPoint x="200" y="345" as="sourcePoint" />
            <mxPoint x="-90" y="345.03" as="targetPoint" />
            <Array as="points">
              <mxPoint x="120" y="345.03" />
              <mxPoint x="120" y="345.03" />
            </Array>
          </mxGeometry>
        </mxCell>
        <mxCell id="KCVy7kyQTgMbln99Nbsg-46" value="Entetr password confirmation" style="text;html=1;align=center;verticalAlign=middle;resizable=0;points=[];autosize=1;strokeColor=none;fillColor=none;" vertex="1" parent="7baba1c4bc27f4b0-2">
          <mxGeometry x="-90" y="380" width="180" height="30" as="geometry" />
        </mxCell>
        <mxCell id="KCVy7kyQTgMbln99Nbsg-60" value="" style="html=1;points=[[0,0,0,0,5],[0,1,0,0,-5],[1,0,0,0,5],[1,1,0,0,-5]];perimeter=orthogonalPerimeter;outlineConnect=0;targetShapes=umlLifeline;portConstraint=eastwest;newEdgeStyle={&quot;curved&quot;:0,&quot;rounded&quot;:0};" vertex="1" parent="7baba1c4bc27f4b0-2">
          <mxGeometry x="65" y="540" width="10" height="30" as="geometry" />
        </mxCell>
        <mxCell id="KCVy7kyQTgMbln99Nbsg-62" style="edgeStyle=orthogonalEdgeStyle;rounded=0;orthogonalLoop=1;jettySize=auto;html=1;curved=0;exitX=0;exitY=1;exitDx=0;exitDy=-5;exitPerimeter=0;endArrow=open;endFill=0;dashed=1;" edge="1" parent="7baba1c4bc27f4b0-2" target="KCVy7kyQTgMbln99Nbsg-60">
          <mxGeometry relative="1" as="geometry">
            <mxPoint x="200" y="540" as="sourcePoint" />
            <mxPoint x="80" y="540" as="targetPoint" />
            <Array as="points">
              <mxPoint x="200" y="541" />
              <mxPoint x="138" y="541" />
              <mxPoint x="138" y="540" />
            </Array>
          </mxGeometry>
        </mxCell>
        <mxCell id="7baba1c4bc27f4b0-3" value=":Registration Form" style="shape=umlLifeline;perimeter=lifelinePerimeter;whiteSpace=wrap;html=1;container=1;collapsible=0;recursiveResize=0;outlineConnect=0;rounded=1;shadow=0;comic=0;labelBackgroundColor=none;strokeWidth=1;fontFamily=Verdana;fontSize=12;align=center;" parent="1" vertex="1">
          <mxGeometry x="410" y="80" width="100" height="590" as="geometry" />
        </mxCell>
        <mxCell id="KCVy7kyQTgMbln99Nbsg-17" value="" style="html=1;points=[[0,0,0,0,5],[0,1,0,0,-5],[1,0,0,0,5],[1,1,0,0,-5]];perimeter=orthogonalPerimeter;outlineConnect=0;targetShapes=umlLifeline;portConstraint=eastwest;newEdgeStyle={&quot;curved&quot;:0,&quot;rounded&quot;:0};" vertex="1" parent="7baba1c4bc27f4b0-3">
          <mxGeometry x="45" y="100" width="10" height="130" as="geometry" />
        </mxCell>
        <mxCell id="KCVy7kyQTgMbln99Nbsg-19" value="Open registration form" style="text;html=1;align=center;verticalAlign=middle;resizable=0;points=[];autosize=1;strokeColor=none;fillColor=none;" vertex="1" parent="7baba1c4bc27f4b0-3">
          <mxGeometry x="-90" y="80" width="140" height="30" as="geometry" />
        </mxCell>
        <mxCell id="KCVy7kyQTgMbln99Nbsg-42" value="" style="html=1;points=[[0,0,0,0,5],[0,1,0,0,-5],[1,0,0,0,5],[1,1,0,0,-5]];perimeter=orthogonalPerimeter;outlineConnect=0;targetShapes=umlLifeline;portConstraint=eastwest;newEdgeStyle={&quot;curved&quot;:0,&quot;rounded&quot;:0};" vertex="1" parent="7baba1c4bc27f4b0-3">
          <mxGeometry x="45" y="290" width="10" height="70" as="geometry" />
        </mxCell>
        <mxCell id="KCVy7kyQTgMbln99Nbsg-45" style="edgeStyle=orthogonalEdgeStyle;rounded=0;orthogonalLoop=1;jettySize=auto;html=1;curved=0;" edge="1" parent="7baba1c4bc27f4b0-3">
          <mxGeometry relative="1" as="geometry">
            <mxPoint x="-242" y="409" as="sourcePoint" />
            <mxPoint x="45" y="410" as="targetPoint" />
            <Array as="points">
              <mxPoint x="-39.75" y="410" />
              <mxPoint x="-39.75" y="410" />
            </Array>
          </mxGeometry>
        </mxCell>
        <mxCell id="KCVy7kyQTgMbln99Nbsg-47" style="edgeStyle=orthogonalEdgeStyle;rounded=0;orthogonalLoop=1;jettySize=auto;html=1;curved=0;endArrow=open;endFill=0;dashed=1;" edge="1" parent="7baba1c4bc27f4b0-3" source="KCVy7kyQTgMbln99Nbsg-49">
          <mxGeometry relative="1" as="geometry">
            <mxPoint x="50" y="455" as="sourcePoint" />
            <mxPoint x="-240" y="455.03" as="targetPoint" />
            <Array as="points">
              <mxPoint x="-30" y="455.03" />
            </Array>
          </mxGeometry>
        </mxCell>
        <mxCell id="KCVy7kyQTgMbln99Nbsg-48" value="Show information about not matching passwords" style="text;html=1;align=center;verticalAlign=middle;resizable=0;points=[];autosize=1;strokeColor=none;fillColor=none;" vertex="1" parent="7baba1c4bc27f4b0-3">
          <mxGeometry x="-240" y="430" width="280" height="30" as="geometry" />
        </mxCell>
        <mxCell id="KCVy7kyQTgMbln99Nbsg-49" value="" style="html=1;points=[[0,0,0,0,5],[0,1,0,0,-5],[1,0,0,0,5],[1,1,0,0,-5]];perimeter=orthogonalPerimeter;outlineConnect=0;targetShapes=umlLifeline;portConstraint=eastwest;newEdgeStyle={&quot;curved&quot;:0,&quot;rounded&quot;:0};" vertex="1" parent="7baba1c4bc27f4b0-3">
          <mxGeometry x="45" y="400" width="10" height="70" as="geometry" />
        </mxCell>
        <mxCell id="KCVy7kyQTgMbln99Nbsg-55" value="" style="html=1;points=[[0,0,0,0,5],[0,1,0,0,-5],[1,0,0,0,5],[1,1,0,0,-5]];perimeter=orthogonalPerimeter;outlineConnect=0;targetShapes=umlLifeline;portConstraint=eastwest;newEdgeStyle={&quot;curved&quot;:0,&quot;rounded&quot;:0};" vertex="1" parent="7baba1c4bc27f4b0-3">
          <mxGeometry x="45" y="500" width="10" height="50" as="geometry" />
        </mxCell>
        <mxCell id="KCVy7kyQTgMbln99Nbsg-63" value="Redirect to the &lt;br&gt;success&amp;nbsp;page" style="text;html=1;align=center;verticalAlign=middle;resizable=0;points=[];autosize=1;strokeColor=none;fillColor=none;" vertex="1" parent="7baba1c4bc27f4b0-3">
          <mxGeometry x="-65" y="540" width="100" height="40" as="geometry" />
        </mxCell>
        <mxCell id="7baba1c4bc27f4b0-4" value=":User service" style="shape=umlLifeline;perimeter=lifelinePerimeter;whiteSpace=wrap;html=1;container=1;collapsible=0;recursiveResize=0;outlineConnect=0;rounded=1;shadow=0;comic=0;labelBackgroundColor=none;strokeWidth=1;fontFamily=Verdana;fontSize=12;align=center;" parent="1" vertex="1">
          <mxGeometry x="550" y="80" width="120" height="590" as="geometry" />
        </mxCell>
        <mxCell id="KCVy7kyQTgMbln99Nbsg-23" value="" style="html=1;points=[[0,0,0,0,5],[0,1,0,0,-5],[1,0,0,0,5],[1,1,0,0,-5]];perimeter=orthogonalPerimeter;outlineConnect=0;targetShapes=umlLifeline;portConstraint=eastwest;newEdgeStyle={&quot;curved&quot;:0,&quot;rounded&quot;:0};" vertex="1" parent="7baba1c4bc27f4b0-4">
          <mxGeometry x="55" y="140" width="10" height="90" as="geometry" />
        </mxCell>
        <mxCell id="KCVy7kyQTgMbln99Nbsg-51" value="" style="html=1;points=[[0,0,0,0,5],[0,1,0,0,-5],[1,0,0,0,5],[1,1,0,0,-5]];perimeter=orthogonalPerimeter;outlineConnect=0;targetShapes=umlLifeline;portConstraint=eastwest;newEdgeStyle={&quot;curved&quot;:0,&quot;rounded&quot;:0};" vertex="1" parent="7baba1c4bc27f4b0-4">
          <mxGeometry x="55" y="510" width="10" height="50" as="geometry" />
        </mxCell>
        <mxCell id="KCVy7kyQTgMbln99Nbsg-73" value="return" style="text;html=1;align=center;verticalAlign=middle;resizable=0;points=[];autosize=1;strokeColor=none;fillColor=none;" vertex="1" parent="7baba1c4bc27f4b0-4">
          <mxGeometry x="70" y="530" width="50" height="30" as="geometry" />
        </mxCell>
        <mxCell id="7baba1c4bc27f4b0-5" value=":Database" style="shape=umlLifeline;perimeter=lifelinePerimeter;whiteSpace=wrap;html=1;container=1;collapsible=0;recursiveResize=0;outlineConnect=0;rounded=1;shadow=0;comic=0;labelBackgroundColor=none;strokeWidth=1;fontFamily=Verdana;fontSize=12;align=center;" parent="1" vertex="1">
          <mxGeometry x="730" y="80" width="100" height="600" as="geometry" />
        </mxCell>
        <mxCell id="KCVy7kyQTgMbln99Nbsg-66" value="" style="html=1;points=[[0,0,0,0,5],[0,1,0,0,-5],[1,0,0,0,5],[1,1,0,0,-5]];perimeter=orthogonalPerimeter;outlineConnect=0;targetShapes=umlLifeline;portConstraint=eastwest;newEdgeStyle={&quot;curved&quot;:0,&quot;rounded&quot;:0};" vertex="1" parent="7baba1c4bc27f4b0-5">
          <mxGeometry x="45" y="140" width="10" height="90" as="geometry" />
        </mxCell>
        <mxCell id="KCVy7kyQTgMbln99Nbsg-69" style="edgeStyle=orthogonalEdgeStyle;rounded=0;orthogonalLoop=1;jettySize=auto;html=1;curved=0;exitX=0;exitY=1;exitDx=0;exitDy=-5;exitPerimeter=0;endArrow=open;endFill=0;dashed=1;" edge="1" parent="7baba1c4bc27f4b0-5" target="KCVy7kyQTgMbln99Nbsg-23">
          <mxGeometry relative="1" as="geometry">
            <mxPoint x="45" y="220" as="sourcePoint" />
            <mxPoint x="-110" y="220" as="targetPoint" />
            <Array as="points">
              <mxPoint x="-35" y="221" />
            </Array>
          </mxGeometry>
        </mxCell>
        <mxCell id="KCVy7kyQTgMbln99Nbsg-71" value="" style="html=1;points=[[0,0,0,0,5],[0,1,0,0,-5],[1,0,0,0,5],[1,1,0,0,-5]];perimeter=orthogonalPerimeter;outlineConnect=0;targetShapes=umlLifeline;portConstraint=eastwest;newEdgeStyle={&quot;curved&quot;:0,&quot;rounded&quot;:0};" vertex="1" parent="7baba1c4bc27f4b0-5">
          <mxGeometry x="45" y="510" width="10" height="50" as="geometry" />
        </mxCell>
        <mxCell id="KCVy7kyQTgMbln99Nbsg-5" style="edgeStyle=orthogonalEdgeStyle;rounded=0;orthogonalLoop=1;jettySize=auto;html=1;dashed=1;endArrow=none;endFill=0;" edge="1" parent="1">
          <mxGeometry relative="1" as="geometry">
            <mxPoint x="166" y="660" as="targetPoint" />
            <mxPoint x="165" y="150" as="sourcePoint" />
            <Array as="points">
              <mxPoint x="165" y="160" />
              <mxPoint x="165" y="407" />
              <mxPoint x="166" y="407" />
              <mxPoint x="166" y="663" />
            </Array>
          </mxGeometry>
        </mxCell>
        <mxCell id="KCVy7kyQTgMbln99Nbsg-4" value=":User" style="shape=umlActor;verticalLabelPosition=bottom;verticalAlign=top;html=1;" vertex="1" parent="1">
          <mxGeometry x="150" y="70" width="30" height="60" as="geometry" />
        </mxCell>
        <mxCell id="KCVy7kyQTgMbln99Nbsg-52" style="edgeStyle=orthogonalEdgeStyle;rounded=0;orthogonalLoop=1;jettySize=auto;html=1;curved=0;" edge="1" parent="1" source="KCVy7kyQTgMbln99Nbsg-6" target="KCVy7kyQTgMbln99Nbsg-55">
          <mxGeometry relative="1" as="geometry">
            <mxPoint x="450" y="580" as="targetPoint" />
            <Array as="points">
              <mxPoint x="240" y="580" />
              <mxPoint x="240" y="580" />
            </Array>
          </mxGeometry>
        </mxCell>
        <mxCell id="KCVy7kyQTgMbln99Nbsg-6" value="" style="html=1;points=[[0,0,0,0,5],[0,1,0,0,-5],[1,0,0,0,5],[1,1,0,0,-5]];perimeter=orthogonalPerimeter;outlineConnect=0;targetShapes=umlLifeline;portConstraint=eastwest;newEdgeStyle={&quot;curved&quot;:0,&quot;rounded&quot;:0};" vertex="1" parent="1">
          <mxGeometry x="160" y="160" width="10" height="470" as="geometry" />
        </mxCell>
        <mxCell id="KCVy7kyQTgMbln99Nbsg-14" style="edgeStyle=orthogonalEdgeStyle;rounded=0;orthogonalLoop=1;jettySize=auto;html=1;curved=0;exitX=1;exitY=0;exitDx=0;exitDy=5;exitPerimeter=0;entryX=0;entryY=0;entryDx=0;entryDy=5;entryPerimeter=0;" edge="1" parent="1" source="KCVy7kyQTgMbln99Nbsg-6" target="KCVy7kyQTgMbln99Nbsg-12">
          <mxGeometry relative="1" as="geometry" />
        </mxCell>
        <mxCell id="KCVy7kyQTgMbln99Nbsg-16" value="Click on Sign Up button" style="text;html=1;align=center;verticalAlign=middle;resizable=0;points=[];autosize=1;strokeColor=none;fillColor=none;" vertex="1" parent="1">
          <mxGeometry x="160" y="140" width="150" height="30" as="geometry" />
        </mxCell>
        <mxCell id="KCVy7kyQTgMbln99Nbsg-18" style="edgeStyle=orthogonalEdgeStyle;rounded=0;orthogonalLoop=1;jettySize=auto;html=1;curved=0;exitX=1;exitY=1;exitDx=0;exitDy=-5;exitPerimeter=0;entryX=0;entryY=0;entryDx=0;entryDy=5;entryPerimeter=0;" edge="1" parent="1" source="KCVy7kyQTgMbln99Nbsg-12" target="KCVy7kyQTgMbln99Nbsg-17">
          <mxGeometry relative="1" as="geometry" />
        </mxCell>
        <mxCell id="KCVy7kyQTgMbln99Nbsg-24" style="edgeStyle=orthogonalEdgeStyle;rounded=0;orthogonalLoop=1;jettySize=auto;html=1;curved=0;" edge="1" parent="1" source="KCVy7kyQTgMbln99Nbsg-17" target="KCVy7kyQTgMbln99Nbsg-23">
          <mxGeometry relative="1" as="geometry">
            <Array as="points">
              <mxPoint x="520" y="230" />
              <mxPoint x="520" y="230" />
            </Array>
          </mxGeometry>
        </mxCell>
        <mxCell id="KCVy7kyQTgMbln99Nbsg-25" value="Check user email" style="text;html=1;align=center;verticalAlign=middle;resizable=0;points=[];autosize=1;strokeColor=none;fillColor=none;" vertex="1" parent="1">
          <mxGeometry x="460" y="210" width="120" height="30" as="geometry" />
        </mxCell>
        <mxCell id="KCVy7kyQTgMbln99Nbsg-26" style="edgeStyle=orthogonalEdgeStyle;rounded=0;orthogonalLoop=1;jettySize=auto;html=1;curved=0;dashed=1;endArrow=open;endFill=0;" edge="1" parent="1" source="KCVy7kyQTgMbln99Nbsg-23" target="KCVy7kyQTgMbln99Nbsg-17">
          <mxGeometry relative="1" as="geometry">
            <Array as="points">
              <mxPoint x="520" y="265" />
              <mxPoint x="520" y="265" />
            </Array>
          </mxGeometry>
        </mxCell>
        <mxCell id="KCVy7kyQTgMbln99Nbsg-28" style="edgeStyle=orthogonalEdgeStyle;rounded=0;orthogonalLoop=1;jettySize=auto;html=1;curved=0;exitX=0;exitY=1;exitDx=0;exitDy=-5;exitPerimeter=0;entryX=1;entryY=1;entryDx=0;entryDy=-5;entryPerimeter=0;endArrow=open;endFill=0;dashed=1;" edge="1" parent="1" source="KCVy7kyQTgMbln99Nbsg-23" target="KCVy7kyQTgMbln99Nbsg-17">
          <mxGeometry relative="1" as="geometry" />
        </mxCell>
        <mxCell id="KCVy7kyQTgMbln99Nbsg-29" value="User email exist" style="text;html=1;align=center;verticalAlign=middle;resizable=0;points=[];autosize=1;strokeColor=none;fillColor=none;" vertex="1" parent="1">
          <mxGeometry x="465" y="280" width="110" height="30" as="geometry" />
        </mxCell>
        <mxCell id="KCVy7kyQTgMbln99Nbsg-31" style="edgeStyle=orthogonalEdgeStyle;rounded=0;orthogonalLoop=1;jettySize=auto;html=1;curved=0;endArrow=open;endFill=0;dashed=1;" edge="1" parent="1" source="7baba1c4bc27f4b0-3" target="KCVy7kyQTgMbln99Nbsg-6">
          <mxGeometry relative="1" as="geometry">
            <mxPoint x="445" y="296" as="sourcePoint" />
            <mxPoint x="165.0000000000001" y="295.5" as="targetPoint" />
            <Array as="points">
              <mxPoint x="380" y="290" />
              <mxPoint x="380" y="290" />
            </Array>
          </mxGeometry>
        </mxCell>
        <mxCell id="KCVy7kyQTgMbln99Nbsg-33" style="edgeStyle=orthogonalEdgeStyle;rounded=0;orthogonalLoop=1;jettySize=auto;html=1;curved=0;" edge="1" parent="1" source="KCVy7kyQTgMbln99Nbsg-6">
          <mxGeometry relative="1" as="geometry">
            <mxPoint x="455" y="239" as="targetPoint" />
            <Array as="points">
              <mxPoint x="450" y="239" />
            </Array>
          </mxGeometry>
        </mxCell>
        <mxCell id="KCVy7kyQTgMbln99Nbsg-34" value="Entetr email" style="text;html=1;align=center;verticalAlign=middle;resizable=0;points=[];autosize=1;strokeColor=none;fillColor=none;" vertex="1" parent="1">
          <mxGeometry x="170" y="210" width="90" height="30" as="geometry" />
        </mxCell>
        <mxCell id="KCVy7kyQTgMbln99Nbsg-35" value="Show invalid password message" style="text;html=1;align=center;verticalAlign=middle;resizable=0;points=[];autosize=1;strokeColor=none;fillColor=none;" vertex="1" parent="1">
          <mxGeometry x="210" y="400" width="200" height="30" as="geometry" />
        </mxCell>
        <mxCell id="KCVy7kyQTgMbln99Nbsg-53" value="Confirm the form" style="text;html=1;align=center;verticalAlign=middle;resizable=0;points=[];autosize=1;strokeColor=none;fillColor=none;" vertex="1" parent="1">
          <mxGeometry x="170" y="548" width="110" height="30" as="geometry" />
        </mxCell>
        <mxCell id="KCVy7kyQTgMbln99Nbsg-56" style="edgeStyle=orthogonalEdgeStyle;rounded=0;orthogonalLoop=1;jettySize=auto;html=1;curved=0;entryX=0;entryY=0;entryDx=0;entryDy=5;entryPerimeter=0;" edge="1" parent="1" source="KCVy7kyQTgMbln99Nbsg-55" target="KCVy7kyQTgMbln99Nbsg-51">
          <mxGeometry relative="1" as="geometry">
            <Array as="points">
              <mxPoint x="500" y="595" />
              <mxPoint x="500" y="595" />
            </Array>
          </mxGeometry>
        </mxCell>
        <mxCell id="KCVy7kyQTgMbln99Nbsg-57" value="Create user" style="text;html=1;align=center;verticalAlign=middle;resizable=0;points=[];autosize=1;strokeColor=none;fillColor=none;" vertex="1" parent="1">
          <mxGeometry x="490" y="570" width="90" height="30" as="geometry" />
        </mxCell>
        <mxCell id="KCVy7kyQTgMbln99Nbsg-64" style="edgeStyle=orthogonalEdgeStyle;rounded=0;orthogonalLoop=1;jettySize=auto;html=1;entryX=0;entryY=0;entryDx=0;entryDy=5;entryPerimeter=0;exitX=1;exitY=0;exitDx=0;exitDy=5;exitPerimeter=0;" edge="1" parent="1" source="KCVy7kyQTgMbln99Nbsg-51" target="KCVy7kyQTgMbln99Nbsg-71">
          <mxGeometry relative="1" as="geometry">
            <Array as="points">
              <mxPoint x="700" y="595" />
              <mxPoint x="700" y="595" />
            </Array>
          </mxGeometry>
        </mxCell>
        <mxCell id="KCVy7kyQTgMbln99Nbsg-67" style="edgeStyle=orthogonalEdgeStyle;rounded=0;orthogonalLoop=1;jettySize=auto;html=1;curved=0;" edge="1" parent="1" source="KCVy7kyQTgMbln99Nbsg-23" target="KCVy7kyQTgMbln99Nbsg-66">
          <mxGeometry relative="1" as="geometry">
            <Array as="points">
              <mxPoint x="700" y="250" />
              <mxPoint x="700" y="250" />
            </Array>
          </mxGeometry>
        </mxCell>
        <mxCell id="KCVy7kyQTgMbln99Nbsg-68" value="query on exist" style="text;html=1;align=center;verticalAlign=middle;resizable=0;points=[];autosize=1;strokeColor=none;fillColor=none;" vertex="1" parent="1">
          <mxGeometry x="640" y="220" width="100" height="30" as="geometry" />
        </mxCell>
        <mxCell id="KCVy7kyQTgMbln99Nbsg-70" value="return" style="text;html=1;align=center;verticalAlign=middle;resizable=0;points=[];autosize=1;strokeColor=none;fillColor=none;" vertex="1" parent="1">
          <mxGeometry x="655" y="270" width="50" height="30" as="geometry" />
        </mxCell>
        <mxCell id="KCVy7kyQTgMbln99Nbsg-72" style="edgeStyle=orthogonalEdgeStyle;rounded=0;orthogonalLoop=1;jettySize=auto;html=1;curved=0;exitX=0;exitY=1;exitDx=0;exitDy=-5;exitPerimeter=0;endArrow=open;endFill=0;dashed=1;" edge="1" parent="1">
          <mxGeometry relative="1" as="geometry">
            <mxPoint x="775" y="630" as="sourcePoint" />
            <mxPoint x="615" y="631" as="targetPoint" />
            <Array as="points">
              <mxPoint x="695" y="631" />
              <mxPoint x="615" y="630" />
            </Array>
          </mxGeometry>
        </mxCell>
        <mxCell id="KCVy7kyQTgMbln99Nbsg-74" value="query on create" style="text;html=1;align=center;verticalAlign=middle;resizable=0;points=[];autosize=1;strokeColor=none;fillColor=none;" vertex="1" parent="1">
          <mxGeometry x="630" y="570" width="110" height="30" as="geometry" />
        </mxCell>
        <mxCell id="KCVy7kyQTgMbln99Nbsg-59" value="User successfuly created" style="text;html=1;align=center;verticalAlign=middle;resizable=0;points=[];autosize=1;strokeColor=none;fillColor=none;" vertex="1" parent="1">
          <mxGeometry x="455" y="600" width="160" height="30" as="geometry" />
        </mxCell>
        <mxCell id="KCVy7kyQTgMbln99Nbsg-58" style="edgeStyle=orthogonalEdgeStyle;rounded=0;orthogonalLoop=1;jettySize=auto;html=1;curved=0;exitX=0;exitY=1;exitDx=0;exitDy=-5;exitPerimeter=0;endArrow=open;endFill=0;dashed=1;entryX=1;entryY=1;entryDx=0;entryDy=-5;entryPerimeter=0;" edge="1" parent="1" target="KCVy7kyQTgMbln99Nbsg-55">
          <mxGeometry relative="1" as="geometry">
            <mxPoint x="605" y="624.75" as="sourcePoint" />
            <mxPoint x="470" y="625" as="targetPoint" />
          </mxGeometry>
        </mxCell>
      </root>
    </mxGraphModel>
  </diagram>
</mxfile>
